{
    "asset" : {
        "generator" : "Khronos glTF Blender I/O v1.0.5",
        "version" : "2.0"
    },
    "scene" : 0,
    "scenes" : [
        {
            "name" : "Scene",
            "nodes" : [
                4,
                5,
                6,
                9
            ]
        }
    ],
    "nodes" : [
        {
            "mesh" : 0,
            "name" : "Cape"
        },
        {
            "mesh" : 1,
            "name" : "Object_4"
        },
        {
            "children" : [
                0,
                1
            ],
            "name" : "Saitama_OK_Cel_shaded.obj.cleaner.materialmerger.gles.001"
        },
        {
            "children" : [
                2
            ],
            "name" : "RootNode (model correction matrix).001"
        },
        {
            "children" : [
                3
            ],
            "name" : "RootNode (gltf orientation matrix).001"
        },
        {
            "name" : "Light",
            "rotation" : [
                0.16907575726509094,
                0.7558803558349609,
                -0.27217137813568115,
                0.570947527885437
            ],
            "translation" : [
                44.91438674926758,
                49.37788391113281,
                3.4559550285339355
            ]
        },
        {
            "name" : "Camera",
            "rotation" : [
                0.47865527868270874,
                0.3025578260421753,
                -0.18865250051021576,
                0.8023453950881958
            ],
            "translation" : [
                42.12961959838867,
                49.90962219238281,
                50.781349182128906
            ]
        },
        {
            "name" : "Saitama_OK_Cel_shaded.obj.cleaner.materialmerger.gles"
        },
        {
            "children" : [
                7
            ],
            "name" : "RootNode (model correction matrix)"
        },
        {
            "children" : [
                8
            ],
            "name" : "RootNode (gltf orientation matrix)"
        }
    ],
    "materials" : [
        {
            "doubleSided" : true,
            "emissiveFactor" : [
                1,
                1,
                1
            ],
            "emissiveTexture" : {
                "index" : 0,
                "texCoord" : 0
            },
            "name" : "phong5SG.001",
            "pbrMetallicRoughness" : {}
        }
    ],
    "meshes" : [
        {
            "name" : "Mesh_1.002",
            "primitives" : [
                {
                    "attributes" : {
                        "POSITION" : 0,
                        "NORMAL" : 1,
                        "TEXCOORD_0" : 2,
                        "JOINTS_0" : 3,
                        "WEIGHTS_0" : 4
                    },
                    "indices" : 5,
                    "material" : 0
                }
            ]
        },
        {
            "name" : "Mesh_1.001",
            "primitives" : [
                {
                    "attributes" : {
                        "POSITION" : 6,
                        "NORMAL" : 7,
                        "TEXCOORD_0" : 8
                    },
                    "indices" : 9,
                    "material" : 0
                }
            ]
        }
    ],
    "textures" : [
        {
            "source" : 0
        }
    ],
    "images" : [
        {
            "mimeType" : "image/png",
            "name" : "phong5SG_baseColor",
            "uri" : "phong5SG_baseColor.png"
        }
    ],
    "accessors" : [
        {
            "bufferView" : 0,
            "componentType" : 5126,
            "count" : 74,
            "max" : [
                6.756602764129639,
                25.13566780090332,
                0.8864380121231079
            ],
            "min" : [
                -6.7563300132751465,
                4.180264949798584,
                -3.0118420124053955
            ],
            "type" : "VEC3"
        },
        {
            "bufferView" : 1,
            "componentType" : 5126,
            "count" : 74,
            "type" : "VEC3"
        },
        {
            "bufferView" : 2,
            "componentType" : 5126,
            "count" : 74,
            "type" : "VEC2"
        },
        {
            "bufferView" : 3,
            "componentType" : 5123,
            "count" : 74,
            "type" : "VEC4"
        },
        {
            "bufferView" : 4,
            "componentType" : 5126,
            "count" : 74,
            "type" : "VEC4"
        },
        {
            "bufferView" : 5,
            "componentType" : 5123,
            "count" : 336,
            "type" : "SCALAR"
        },
        {
            "bufferView" : 6,
            "componentType" : 5126,
            "count" : 2594,
            "max" : [
                5.067914009094238,
                29.526376724243164,
                2.6026840209960938
            ],
            "min" : [
                -5.067914009094238,
                -0.019915999844670296,
                -2.444343090057373
            ],
            "type" : "VEC3"
        },
        {
            "bufferView" : 7,
            "componentType" : 5126,
            "count" : 2594,
            "type" : "VEC3"
        },
        {
            "bufferView" : 8,
            "componentType" : 5126,
            "count" : 2594,
            "type" : "VEC2"
        },
        {
            "bufferView" : 9,
            "componentType" : 5123,
            "count" : 8817,
            "type" : "SCALAR"
        }
    ],
    "bufferViews" : [
        {
            "buffer" : 0,
            "byteLength" : 888,
            "byteOffset" : 0
        },
        {
            "buffer" : 0,
            "byteLength" : 888,
            "byteOffset" : 888
        },
        {
            "buffer" : 0,
            "byteLength" : 592,
            "byteOffset" : 1776
        },
        {
            "buffer" : 0,
            "byteLength" : 592,
            "byteOffset" : 2368
        },
        {
            "buffer" : 0,
            "byteLength" : 1184,
            "byteOffset" : 2960
        },
        {
            "buffer" : 0,
            "byteLength" : 672,
            "byteOffset" : 4144
        },
        {
            "buffer" : 0,
            "byteLength" : 31128,
            "byteOffset" : 4816
        },
        {
            "buffer" : 0,
            "byteLength" : 31128,
            "byteOffset" : 35944
        },
        {
            "buffer" : 0,
            "byteLength" : 20752,
            "byteOffset" : 67072
        },
        {
            "buffer" : 0,
            "byteLength" : 17634,
            "byteOffset" : 87824
        }
    ],
    "buffers" : [
        {
            "byteLength" : 105460,
            "uri" : "untitled.bin"
        }
    ]
}
